<?xml version="1.0" encoding="utf-8" ?>
<svg xmlns="http://www.w3.org/2000/svg" xmlns:xlink="http://www.w3.org/1999/xlink" width="1024" height="1024">
	<path fill="#3F4F58" d="M430.165 430.649C423.357 423.426 382.125 379.494 380.175 374.785C379.127 372.253 379.266 367.924 379.195 365.171C378.451 336.041 379.158 306.719 379.156 277.57C379.154 251.538 378.367 225.253 379.166 199.253C379.291 195.167 380.621 191.359 383.724 188.582C386.236 186.334 389.233 185.441 392.554 185.245C401.345 184.726 410.373 185.112 419.187 185.111L470.074 185.111L625.723 185.132L753.883 185.108L793.791 185.097C801.377 185.094 809.155 184.738 816.713 185.381C817.325 185.434 817.929 185.468 818.542 185.51C821.152 185.688 824.415 189.104 826.261 190.903C831.964 196.462 837.157 202.79 842.502 208.702L873.267 242.882C891.118 262.778 910.695 283.031 927.573 303.568Q928.886 305.163 930.139 306.807C931.934 309.121 931.706 312.625 931.815 315.436C932.303 328.032 931.919 340.792 931.913 353.406L931.893 424.16L931.899 463.154C931.897 469.464 932.498 476.647 931.518 482.863C931.029 485.962 928.973 488.535 926.384 490.208Q925.587 490.725 924.736 491.147Q923.885 491.57 922.991 491.892Q922.097 492.214 921.172 492.431Q920.247 492.648 919.303 492.758C908.104 492.985 896.846 492.614 885.663 493.101L881.498 492.909L880.353 493.035C887.942 501.302 927.307 541.369 930.609 548.141C931.648 550.27 931.719 553.24 931.833 555.601C932.204 563.333 931.924 571.198 931.917 578.942L931.926 619.523L931.927 665.863C931.924 674.09 932.183 682.415 931.863 690.632C931.711 694.517 930.965 697.838 927.977 700.559C920.677 707.205 897.285 703.585 887.209 704.547C894.872 711.927 901.962 720.015 909.249 727.773C915.495 734.423 926.061 744.115 930.366 751.697C931.56 753.801 931.601 756.793 931.726 759.176C932.577 775.375 931.89 791.959 931.888 808.194C931.887 817.052 932.963 854.215 930.96 860.408C929.883 863.739 927.347 866.591 924.218 868.126C921.901 869.262 919.32 869.813 916.751 869.897C895.667 870.587 874.378 870 853.278 870.001L730.409 870L568.748 869.995C541.381 869.998 513.934 870.474 486.576 870.001C483.792 869.952 480.715 869.896 478.101 868.873C475.9 868.011 474.093 866.625 472.402 865.006C465.594 858.488 459.237 851.272 452.846 844.342L424.087 813.203C411.128 799.181 397.207 785.838 384.695 771.435C382.936 769.411 380.94 767.166 380.001 764.627C379.429 763.078 379.172 761.403 379.116 759.758C378.494 741.464 379.1 722.91 379.097 704.589C379.095 688.998 378.376 673.063 379.158 657.517C379.29 654.891 379.53 651.9 380.689 649.513C382.354 646.085 385.774 644.307 389.174 643.028C400.287 643.108 412.085 643.838 423.138 642.915C421.173 639.712 417.84 636.697 415.257 633.927L393.256 610.598C389.201 606.283 384.449 601.919 381.204 596.952C380.327 595.609 379.868 594.294 379.643 592.71C378.354 583.625 379.123 573.719 379.126 564.531L379.137 512.563L379.125 464.899C379.124 457.543 378.429 449.404 379.35 442.127C379.774 438.776 381.267 436.625 383.259 434.038C384.695 432.845 386.088 431.891 387.923 431.415C397.083 429.036 419.119 431.093 430.165 430.649Z"/>
	<defs>
		<linearGradient id="gradient_0" gradientUnits="userSpaceOnUse" x1="616.72626" y1="480.44717" x2="705.06232" y2="156.10475">
			<stop offset="0" stop-color="#2A9595"/>
			<stop offset="1" stop-color="#3BC2C2"/>
		</linearGradient>
	</defs>
	<path fill="url(#gradient_0)" d="M430.165 430.649C423.357 423.426 382.125 379.494 380.175 374.785C379.127 372.253 379.266 367.924 379.195 365.171C378.451 336.041 379.158 306.719 379.156 277.57C379.154 251.538 378.367 225.253 379.166 199.253C379.291 195.167 380.621 191.359 383.724 188.582C386.236 186.334 389.233 185.441 392.554 185.245C401.345 184.726 410.373 185.112 419.187 185.111L470.074 185.111L625.723 185.132L753.883 185.108L793.791 185.097C801.377 185.094 809.155 184.738 816.713 185.381C817.325 185.434 817.929 185.468 818.542 185.51C821.152 185.688 824.415 189.104 826.261 190.903C831.964 196.462 837.157 202.79 842.502 208.702L873.267 242.882C891.118 262.778 910.695 283.031 927.573 303.568Q928.886 305.163 930.139 306.807C931.934 309.121 931.706 312.625 931.815 315.436C932.303 328.032 931.919 340.792 931.913 353.406L931.893 424.16L931.899 463.154C931.897 469.464 932.498 476.647 931.518 482.863C931.029 485.962 928.973 488.535 926.384 490.208Q925.587 490.725 924.736 491.147Q923.885 491.57 922.991 491.892Q922.097 492.214 921.172 492.431Q920.247 492.648 919.303 492.758C908.104 492.985 896.846 492.614 885.663 493.101L881.498 492.909L880.353 493.035C867.855 492.18 855.062 492.653 842.534 492.653L778.624 492.676L584.5 492.701L522.744 492.663C512.865 492.661 502.04 493.649 492.283 492.338C487.026 491.632 483.269 489.01 479.557 485.417C472.902 478.431 466.733 470.851 460.325 463.621C450.718 452.782 440.89 442.116 431.43 431.15L430.165 430.649Z"/>
	<path fill="#4C826F" d="M431.43 431.15C451.214 430.25 471.274 430.935 491.091 430.936L603.764 430.96L739.886 430.965C763.473 430.957 787.261 430.308 810.829 431.011C814.621 431.125 819.96 430.931 823.041 433.295C823.311 433.502 823.588 433.7 823.86 433.904C832.594 440.439 840.29 450.284 847.72 458.329C857.991 469.449 868.463 480.345 878.856 491.346C879.807 492.038 880.39 492.495 881.498 492.909L880.353 493.035C867.855 492.18 855.062 492.653 842.534 492.653L778.624 492.676L584.5 492.701L522.744 492.663C512.865 492.661 502.04 493.649 492.283 492.338C487.026 491.632 483.269 489.01 479.557 485.417C472.902 478.431 466.733 470.851 460.325 463.621C450.718 452.782 440.89 442.116 431.43 431.15Z"/>
	<path fill="#E8692C" d="M430.165 430.649L431.43 431.15C440.89 442.116 450.718 452.782 460.325 463.621C466.733 470.851 472.902 478.431 479.557 485.417C483.269 489.01 487.026 491.632 492.283 492.338C502.04 493.649 512.865 492.661 522.744 492.663L584.5 492.701L778.624 492.676L842.534 492.653C855.062 492.653 867.855 492.18 880.353 493.035C887.942 501.302 927.307 541.369 930.609 548.141C931.648 550.27 931.719 553.24 931.833 555.601C932.204 563.333 931.924 571.198 931.917 578.942L931.926 619.523L931.927 665.863C931.924 674.09 932.183 682.415 931.863 690.632C931.711 694.517 930.965 697.838 927.977 700.559C920.677 707.205 897.285 703.585 887.209 704.547L886.824 704.356C886.674 704.311 886.528 704.253 886.374 704.221C885.617 704.061 885.045 704.057 884.381 703.605C880.609 701.033 876.935 696.287 873.661 692.97L847.993 666.783C842.064 660.726 836.141 653.741 829.122 648.971C822.514 644.48 819.42 643.923 811.41 643.546C800.437 643.029 789.27 643.429 778.279 643.422L715.033 643.402L524.935 643.38L445.177 643.372C440.561 643.377 426.39 642.38 423.408 642.933L423.138 642.915C421.173 639.712 417.84 636.697 415.257 633.927L393.256 610.598C389.201 606.283 384.449 601.919 381.204 596.952C380.327 595.609 379.868 594.294 379.643 592.71C378.354 583.625 379.123 573.719 379.126 564.531L379.137 512.563L379.125 464.899C379.124 457.543 378.429 449.404 379.35 442.127C379.774 438.776 381.267 436.625 383.259 434.038C384.695 432.845 386.088 431.891 387.923 431.415C397.083 429.036 419.119 431.093 430.165 430.649Z"/>
	<path fill="#CC501F" d="M423.408 642.933C426.39 642.38 440.561 643.377 445.177 643.372L524.935 643.38L715.033 643.402L778.279 643.422C789.27 643.429 800.437 643.029 811.41 643.546C819.42 643.923 822.514 644.48 829.122 648.971C836.141 653.741 842.064 660.726 847.993 666.783L873.661 692.97C876.935 696.287 880.609 701.033 884.381 703.605C885.045 704.057 885.617 704.061 886.374 704.221C886.528 704.253 886.674 704.311 886.824 704.356C863.752 704.843 840.582 704.434 817.5 704.428L687.248 704.423L557.238 704.441C535.427 704.442 513.513 704.871 491.713 704.409C488.808 704.348 482.636 704.575 480.207 702.997C480.042 702.89 479.886 702.771 479.725 702.659C471.397 696.892 464.577 687.972 457.793 680.469C446.421 667.893 435.216 655.103 423.408 642.933Z"/>
	<path fill="#FEFEFE" d="M152.99 702.516L164.98 702.468C164.573 716.766 164.972 731.18 165.035 745.487C161.848 745.389 158.637 745.486 155.448 745.507L155.383 733.625C155.289 728.542 155.488 723.48 155.679 718.402C154.541 722.619 151.754 737.064 148.741 739.499C147.572 740.444 147.281 740.384 145.889 740.216C141.169 736.957 139.491 726.202 137.953 720.878C138.231 729.081 137.77 737.357 138.414 745.538L129.023 745.469L129.055 702.537L140.493 702.505C142.829 709.876 144.67 717.38 146.568 724.871C148.971 717.531 150.874 709.946 152.99 702.516Z"/>
	<path fill="#FEFEFE" d="M177.808 286.451L189.378 286.437C188.751 300.616 189.161 315.299 189.511 329.493C186.301 329.206 183.217 329.223 179.999 329.36L179.993 320.125Q179.929 312.499 180.088 304.874C178.386 309.922 177.115 318.648 174.432 322.886C174.005 323.56 173.705 323.979 172.924 324.161C171.656 324.458 170.578 324.042 169.561 323.292C166.684 321.174 163.945 307.417 163.216 303.414C162.7 312.048 163.028 320.864 163.005 329.52L154.09 329.168L154.058 286.49L165.54 286.428C167.663 293.834 169.124 301.412 171.485 308.751C174.287 301.566 175.774 293.879 177.808 286.451Z"/>
	<path fill="#FEFEFE" d="M132.267 285.578C135.027 285.449 137.828 285.408 140.435 286.452C143.9 287.84 146.47 290.78 147.791 294.222C150.482 301.229 150.65 315.869 147.319 322.666C145.31 326.766 142.88 328.358 138.636 329.725C134.973 330.267 131.005 330.215 127.663 328.449C124.817 326.945 122.989 324.192 122.043 321.18C120.02 314.741 120.007 297.386 123.383 291.619C125.446 288.097 128.441 286.583 132.267 285.578ZM135.711 321.591C138.636 319.229 138.911 317.155 139.295 313.602C139.771 309.189 140.495 299.038 137.493 295.528C136.644 294.536 135.163 294.225 133.962 293.874C131.919 295.328 131.34 296.501 130.892 298.945C129.985 303.886 129.153 315.467 132.141 319.572C133.019 320.777 134.32 321.184 135.711 321.591Z"/>
	<path fill="#FEFEFE" d="M297.443 701.591C300.662 701.518 303.802 701.839 306.606 703.563C309.678 705.452 311.467 708.715 312.284 712.151C313.828 718.649 313.975 735.224 310.246 740.658C307.712 744.351 304.349 745.31 300.192 745.98C296.908 746.116 293.868 745.978 291.05 744.072C287.62 741.751 285.831 738.111 285.061 734.132C283.617 726.676 283.411 713.642 287.862 707.214C290.421 703.519 293.148 702.398 297.443 701.591ZM299.095 737.755C301.078 736.481 302.096 735.524 302.634 733.171C303.712 728.454 304.448 715.259 301.442 711.412C300.741 710.516 299.739 710.196 298.728 709.783C295.868 711.901 295.394 713.194 294.882 716.67C294.154 721.613 293.379 731.816 296.373 736.015C297.073 736.998 298.032 737.245 299.095 737.755Z"/>
	<path fill="#FEFEFE" d="M318.035 702.541C322.254 702.593 326.479 702.28 330.7 702.406C334.822 702.529 339.215 703.319 342.074 706.571C344.861 709.741 345.303 714.694 344.895 718.737C344.458 723.082 342.474 725.926 339.147 728.594C341.627 734.274 344.38 739.845 347.046 745.44L335.919 745.5C334.502 741.953 331.046 731.284 328.241 729.37C326.491 733.141 327.61 741.223 327.682 745.485L317.957 745.492L318.035 702.541ZM327.568 722.408C329.499 722.148 331.707 722.08 333.434 721.133C334.438 719.134 335.455 716.963 334.974 714.657C334.679 713.242 333.624 712.151 332.335 711.569C330.896 710.919 329.06 710.936 327.508 710.914L327.568 722.408Z"/>
	<path fill="#FEFEFE" d="M297.019 286.528C302.308 286.413 308.065 285.864 313.299 286.64C316.726 287.148 320.004 288.47 321.998 291.445C324.375 294.991 324.533 300.451 323.752 304.545C323.035 308.306 321.199 310.435 318.063 312.488C320.705 318.049 322.947 323.816 325.951 329.197L315.316 329.425C312.21 325.031 312.489 318.101 308.133 314.575L307.443 314.824C305.991 318.627 306.908 325.332 306.988 329.509C303.682 329.349 300.356 329.344 297.046 329.278L297.019 286.528ZM312.731 305.054C313.805 303.279 314.723 300.925 314.348 298.799C314.112 297.46 312.855 296.168 311.687 295.558C310.395 294.884 308.429 294.808 306.979 294.472C306.897 297.9 306.2 302.147 307.333 305.389C308.204 306.202 308.4 306.436 309.696 306.259C310.653 306.128 311.871 305.491 312.731 305.054Z"/>
	<path fill="#FEFEFE" d="M237.291 702.446L250.214 702.53C254.157 716.651 257.007 731.239 260.4 745.518L249.951 745.459L248.456 737.098L247.801 736.292Q243.841 736.298 239.887 736.094L237.803 745.519L228.078 745.495C229.845 738.188 231.178 730.745 232.81 723.401C234.356 716.443 236.275 709.504 237.291 702.446ZM245.618 728.111L246.611 727.658C246.023 723.351 245.088 718.408 243.61 714.318Q242.253 721.115 241.134 727.955Q243.375 728.074 245.618 728.111Z"/>
	<path fill="#FEFEFE" d="M230.24 493.73C234.028 493.542 237.836 493.61 241.629 493.61C245.818 507.619 248.312 522.529 251.722 536.776C248.382 536.627 245.075 536.709 241.735 536.813C241.124 534.089 240.596 531.34 240.032 528.606C238.527 527.25 233.743 527.86 231.716 527.915Q230.853 532.472 229.837 536.997C226.677 536.821 223.537 536.759 220.372 536.754C221.126 532.022 228.085 496.854 229.324 494.717C229.55 494.329 229.935 494.059 230.24 493.73ZM236.241 520.545L237.699 519.727C238.625 516.195 236.552 509.853 235.638 506.332C234.521 510.524 232.922 514.909 233.43 519.282C234.366 520.272 234.938 520.24 236.241 520.545Z"/>
	<path fill="#FEFEFE" d="M195.083 286.488C201.766 286.476 212.421 284.656 217.852 289.206C220.698 291.591 222.044 295.156 222.358 298.779C222.728 303.051 221.891 307.674 218.89 310.903C215.348 314.715 210.861 315.051 206.002 315.234L205.199 315.526C204.368 319.791 204.968 324.989 204.997 329.364C201.742 329.073 198.326 329.338 195.056 329.409L195.083 286.488ZM210.936 305.749C211.916 303.566 212.966 300.188 211.949 297.858C211.462 296.743 210.468 295.555 209.272 295.169C207.928 294.735 206.445 294.558 205.053 294.326C205.004 297.104 203.936 304.279 205.693 306.362C206.129 306.878 206.712 306.978 207.377 306.936C208.456 306.867 209.945 306.177 210.936 305.749Z"/>
	<path fill="#FEFEFE" d="M169.976 702.523L179.45 702.492C179.409 710.037 178.28 727.243 179.971 733.843C180.366 735.386 180.986 736.354 182.391 737.169C183.705 737.203 184.451 737.197 185.501 736.306C186.592 735.38 187.3 733.745 187.505 732.357C187.941 729.398 187.611 725.958 187.598 722.962L187.486 702.548L197.238 702.492L197.381 710.458C197.399 718.808 199.341 736.544 193.263 742.528C190.449 745.298 186.388 746.138 182.557 746.074C179.142 746.016 175.964 744.945 173.634 742.367C167.51 735.594 169.791 711.655 169.976 702.523Z"/>
	<path fill="#FEFEFE" d="M93.9065 701.608C97.5008 701.392 101.759 701.956 104.597 704.355C108.116 707.331 108.595 711.677 109.079 715.953C106.039 716.211 102.984 716.187 99.9353 716.217C99.897 716.099 99.8549 715.981 99.8203 715.861C99.446 714.564 99.1844 712.954 98.4604 711.805C97.9479 710.993 96.7498 710.329 95.8076 710.237C94.4207 710.101 93.9222 710.594 92.9413 711.399C92.5724 712.531 92.392 712.983 92.6782 714.185C93.6184 718.132 100.075 720.03 103.152 721.929C106.14 723.773 108.441 727.107 109.176 730.53C109.902 733.911 109.216 737.599 107.213 740.429C104.6 744.121 101.622 745.155 97.3675 745.989C93.7988 746.112 90.7784 746.075 87.6977 744.09C84.8939 742.284 82.11 739.222 81.4619 735.844C81.2303 734.636 81.4064 733.653 82.1245 732.655C83.3162 731 88.4911 730.96 90.4534 730.737C90.8583 732.082 91.2455 733.56 91.9819 734.769C92.6483 735.862 94.4495 737.011 95.7841 737.118C97.2157 737.232 97.5038 737.032 98.5569 736.201C102.057 728.987 84.8175 726.618 82.2728 716.014C81.5617 713.051 82.4903 710.144 84.165 707.682C86.925 703.625 89.2387 702.586 93.9065 701.608Z"/>
	<path fill="#FEFEFE" d="M203.609 493.097C207.758 492.843 211.006 493.275 214.312 495.94C216.567 497.758 218.949 500.946 219.18 503.932C219.288 505.332 218.837 506.177 217.959 507.238C215.226 507.561 212.484 507.719 209.738 507.891C209.543 506.664 209.327 504.837 208.623 503.789C207.951 502.789 206.646 502.063 205.441 501.935C204.167 501.8 203.649 502.305 202.724 503.02C202.256 504.308 202.007 504.747 202.457 506.115C203.592 509.566 209.436 511.414 212.299 513.085C215.223 514.792 217.469 517.122 218.227 520.5C218.989 523.902 218.628 529.327 216.593 532.285C214.31 535.603 210.757 536.681 206.988 537.354C204.525 537.535 201.876 537.48 199.602 536.398C196.525 534.935 192.531 531.514 191.678 528.042C191.212 526.144 191.565 525.121 192.581 523.585C194.992 522.667 197.675 522.575 200.225 522.298C201.003 524.319 201.66 526.933 203.292 528.403C204.144 528.731 204.71 528.942 205.646 528.755C206.797 528.526 207.928 527.817 208.559 526.814C211.808 521.656 194.937 517.656 192.508 507.933C191.78 505.022 192.446 502.146 193.994 499.614C196.592 495.365 198.856 494.118 203.609 493.097Z"/>
	<path fill="#FEFEFE" d="M100.793 285.552L100.966 285.546C105.391 285.419 109.914 285.584 113.256 288.935C116.756 292.444 117.038 297.287 117.055 301.939L108.001 302.027C107.93 300.159 107.877 298.18 107.182 296.416C106.749 295.318 105.895 294.268 104.687 294.004C103.943 293.841 103.194 293.897 102.541 294.282C101.023 295.18 100.383 296.805 99.9921 298.448C98.6749 303.978 98.3804 315.819 101.507 320.695C102.415 321.194 103.454 321.461 104.5 321.232C107.442 320.589 107.256 315.809 108.581 313.644L110.375 313.464C112.506 313.433 114.619 313.489 116.748 313.581C116.833 313.795 116.962 313.996 117.002 314.222C117.465 316.828 116.653 320.636 115.513 322.944Q115.226 323.529 114.883 324.082Q114.539 324.635 114.142 325.151Q113.746 325.668 113.299 326.142Q112.853 326.616 112.362 327.044Q111.871 327.471 111.34 327.848Q110.808 328.224 110.242 328.546Q109.676 328.868 109.081 329.132Q108.486 329.396 107.867 329.599C104.399 330.737 100.414 330.66 97.1629 328.889C93.9043 327.115 91.7439 324.002 90.6902 320.495C88.8151 314.255 88.7534 297.263 91.919 291.618C93.9788 287.944 96.8956 286.618 100.793 285.552Z"/>
	<path fill="#FEFEFE" d="M269.302 286.466L292.487 286.461C292.324 289.332 292.363 292.245 292.322 295.122C287.877 294.962 283.4 295.04 278.95 295.014L278.876 303.102L290.001 303.415L289.999 311.788C286.359 311.545 282.648 311.697 278.997 311.714L278.955 319.125C278.954 319.806 278.897 319.394 279.356 320.308C283.562 320.963 288.215 320.54 292.479 320.501L292.584 329.374C284.912 329.099 277.151 329.367 269.47 329.395C269.038 315.113 269.488 300.762 269.302 286.466Z"/>
	<path fill="#FEFEFE" d="M257.012 702.53L282.963 702.43C282.892 705.378 282.945 708.338 282.946 711.288C280.282 711.113 277.581 711.116 274.911 711.048L274.953 738.248L274.979 745.545C271.656 745.465 268.318 745.517 264.993 745.506L265.003 711.381C262.304 711.384 259.593 711.192 256.897 711.071L257.012 702.53Z"/>
	<path fill="#FEFEFE" d="M242.07 286.513L252.002 286.397C251.601 297.758 251.914 309.194 251.973 320.561L264.584 320.433C264.637 323.055 265.124 326.858 264.4 329.345C256.99 328.903 249.46 329.473 242.013 329.206Q241.824 307.859 242.07 286.513Z"/>
	<path fill="#FEFEFE" d="M202.543 702.513L212.462 702.507C211.174 712.453 212.363 726.094 212.236 736.489C216.518 736.436 220.821 736.47 225.093 736.146L225.065 744.918C223.906 746.008 205.681 745.492 202.693 745.49C202.21 731.199 202.53 716.815 202.543 702.513Z"/>
	<path fill="#FEFEFE" d="M178.09 493.722L187.982 493.564C187.511 508.02 188.634 522.599 187.848 537.034C184.527 536.777 181.34 536.66 178.013 536.834Q177.812 515.277 178.09 493.722Z"/>
	<path fill="#FEFEFE" d="M113.57 702.506L123.473 702.478L123.49 745.557C120.168 745.397 116.798 745.496 113.47 745.489L113.57 702.506Z"/>
	<path fill="#FEFEFE" d="M226.379 286.499L236.502 286.448C235.788 300.683 236.397 315.233 236.419 329.495C233.037 329.2 229.756 329.264 226.368 329.396C226.587 315.113 226.467 300.783 226.379 286.499Z"/>
</svg>
